<svg width="24" height="28" viewBox="0 0 24 28" fill="none" xmlns="http://www.w3.org/2000/svg">
<path d="M24 0.116577L21.8135 24.6105L11.9853 27.3352L2.18415 24.6143L0 0.116577H24Z" fill="#264DE4"/>
<path d="M12 25.2525L19.9417 23.0508L21.8102 2.11963H12V25.2525Z" fill="#2965F1"/>
<path d="M12 11.2054H5.00708L5.27637 14.21H12V11.2054Z" fill="#EBEBEB"/>
<path d="M12 5.12427H11.9897H4.46606L4.73919 8.12885H12V5.12427Z" fill="#EBEBEB"/>
<path d="M5.41064 15.7124L5.83158 20.43L11.9862 22.1385L12 22.1347V19.0087L11.9868 19.0122L8.64065 18.1087L8.42674 15.7124H6.80075H5.41064Z" fill="#EBEBEB"/>
<path d="M15.6894 14.2101L15.3406 18.1067L11.9896 19.0112V22.1371L18.1491 20.4299L18.1943 19.9223L18.9003 12.0124L18.9736 11.2055L19.5161 5.12427H11.9896V8.12885H16.2233L15.9499 11.2055H11.9896V14.2101H15.6894Z" fill="white"/>
</svg>
