<svg width="24" height="24" viewBox="0 0 24 24" fill="none" xmlns="http://www.w3.org/2000/svg">
<g clip-path="url(#clip0_501_137)">
<path d="M23.7635 9.86133C23.6985 9.80963 23.0908 9.35083 21.8094 9.35083C21.471 9.35231 21.1333 9.38133 20.7997 9.43761C20.5517 7.73767 19.1462 6.90885 19.0832 6.87167L18.7391 6.67322L18.5128 6.99981C18.2294 7.43851 18.0225 7.92211 17.901 8.43004C17.6716 9.40043 17.8111 10.3119 18.304 11.0911C17.7088 11.4228 16.7539 11.5045 16.5607 11.5117H0.751508C0.338576 11.5122 0.00350273 11.8459 0.00125234 12.2588C-0.0171875 13.6438 0.217458 15.0205 0.693634 16.3212C1.23823 17.7494 2.04844 18.8014 3.10252 19.4452C4.28373 20.1686 6.20277 20.5819 8.37811 20.5819C9.36081 20.585 10.3417 20.4961 11.3078 20.3164C12.6509 20.0698 13.9432 19.6003 15.1315 18.9274C16.1105 18.3605 16.9917 17.6392 17.7408 16.7914C18.9934 15.3735 19.7395 13.7945 20.2944 12.3911H20.5156C21.8869 12.3911 22.7302 11.8424 23.1952 11.3825C23.5042 11.0892 23.7455 10.7319 23.9021 10.3357L24.0002 10.0484L23.7635 9.86133Z" fill="#2496ED"/>
<path d="M2.21671 11.0487H4.33521C4.43737 11.0487 4.52017 10.9658 4.52017 10.8637V8.97665C4.52075 8.87448 4.43838 8.79123 4.33624 8.79065H4.33521H2.21671C2.11453 8.79065 2.03174 8.87347 2.03174 8.97562V8.97665V10.8637C2.03174 10.9658 2.11453 11.0487 2.21671 11.0487Z" fill="#2496ED"/>
<path d="M5.136 11.0487H7.2545C7.35667 11.0487 7.43947 10.9658 7.43947 10.8637V8.97665C7.44005 8.87448 7.35768 8.79123 7.25551 8.79065H7.25448H5.13597C5.03323 8.79065 4.94995 8.87391 4.94995 8.97665V10.8637C4.95058 10.966 5.03366 11.0487 5.136 11.0487Z" fill="#2496ED"/>
<path d="M8.09979 11.0487H10.2183C10.3205 11.0487 10.4033 10.9658 10.4033 10.8637V8.97665C10.4038 8.87448 10.3215 8.79123 10.2193 8.79065H10.2182H8.09976C7.99757 8.79065 7.91479 8.87347 7.91479 8.97562V8.97665V10.8637C7.91482 10.9658 7.99764 11.0487 8.09979 11.0487Z" fill="#2496ED"/>
<path d="M11.0287 11.0487H13.1472C13.2496 11.0487 13.3327 10.966 13.3332 10.8637V8.97665C13.3332 8.87391 13.25 8.79065 13.1472 8.79065H11.0287C10.9265 8.79065 10.8438 8.87347 10.8438 8.97562V8.97665V10.8637C10.8438 10.9658 10.9266 11.0487 11.0287 11.0487Z" fill="#2496ED"/>
<path d="M5.1362 8.33392H7.2547C7.35701 8.33334 7.43967 8.25021 7.43967 8.1479V6.2609C7.43967 6.15873 7.35684 6.07593 7.2547 6.07593H5.1362C5.03388 6.07593 4.95075 6.15856 4.9502 6.2609V8.1479C4.95075 8.25042 5.03369 8.33334 5.1362 8.33392Z" fill="#2496ED"/>
<path d="M8.10001 8.33392H10.2185C10.3208 8.33334 10.4035 8.25021 10.4035 8.1479V6.2609C10.4035 6.15873 10.3206 6.07593 10.2185 6.07593H8.10001C7.99784 6.07593 7.91504 6.15875 7.91504 6.2609V8.1479C7.91504 8.25021 7.99769 8.33334 8.10001 8.33392Z" fill="#2496ED"/>
<path d="M11.0287 8.33392H13.1472C13.2497 8.33334 13.3327 8.25042 13.3332 8.1479V6.2609C13.3327 6.15856 13.2496 6.07593 13.1472 6.07593H11.0287C10.9265 6.07593 10.8438 6.15875 10.8438 6.2609V8.1479C10.8438 8.25021 10.9264 8.33334 11.0287 8.33392Z" fill="#2496ED"/>
<path d="M11.0287 5.61812H13.1472C13.2496 5.61812 13.3327 5.53547 13.3332 5.43316V3.54508C13.3327 3.44274 13.2496 3.36011 13.1472 3.36011H11.0287C10.9265 3.36011 10.8438 3.44291 10.8438 3.54508V5.43313C10.8438 5.5353 10.9266 5.61812 11.0287 5.61812Z" fill="#2496ED"/>
<path d="M13.9831 11.0487H16.1015C16.2039 11.0487 16.287 10.966 16.2876 10.8637V8.97665C16.2876 8.87391 16.2043 8.79065 16.1015 8.79065H13.9831C13.8809 8.79065 13.7981 8.87347 13.7981 8.97562V8.97665V10.8637C13.7981 10.9658 13.8809 11.0487 13.9831 11.0487Z" fill="#2496ED"/>
</g>
<defs>
<clipPath id="clip0_501_137">
<rect width="24" height="24" fill="white"/>
</clipPath>
</defs>
</svg>
