<svg width="24" height="28" viewBox="0 0 24 28" fill="none" xmlns="http://www.w3.org/2000/svg">
<path d="M0.00260918 0.908763L1.78428 23.7021C1.81103 24.0443 2.04271 24.3362 2.37 24.44L11.7452 27.4124C11.911 27.4649 12.089 27.4649 12.2548 27.4124L21.63 24.44C21.9573 24.3362 22.189 24.0443 22.2157 23.7021L23.9974 0.908763C24.0357 0.418719 23.6484 0 23.1569 0H0.843146C0.351647 0 -0.0356459 0.418719 0.00260918 0.908763ZM19.4284 7.98076H7.81688L8.16731 11.2122H19.1759L18.4557 20.4246L12 22.4713L5.54434 20.4246L5.16812 15.6117H8.55657V17.9725L12.0906 18.921L15.6035 17.9725L15.876 14.21H5.05854L4.34035 5.02178H19.6596L19.4284 7.98076Z" fill="#FC490B"/>
</svg>
