<svg width="24" height="25" viewBox="0 0 24 25" fill="none" xmlns="http://www.w3.org/2000/svg">
<path d="M0 0.72583H24V24.7258H0V0.72583Z" fill="#F0DB4F"/>
<path d="M21.9342 19.2113C21.7562 18.1019 21.0328 17.1704 18.8902 16.3014C18.1459 15.9593 17.3162 15.7143 17.0689 15.1503C16.981 14.8221 16.9695 14.6372 17.025 14.4385C17.1844 13.7936 17.9541 13.5925 18.5643 13.7774C18.9572 13.9092 19.3293 14.212 19.5535 14.695C20.6029 14.0155 20.6006 14.0201 21.3332 13.5532C21.0651 13.1372 20.9218 12.9453 20.7462 12.7674C20.1152 12.0625 19.2554 11.6996 17.8801 11.7273C17.6421 11.7574 17.4017 11.7897 17.1636 11.8198C16.4772 11.9931 15.8231 12.3537 15.4394 12.8367C14.2884 14.1426 14.6166 16.4285 16.0172 17.3692C17.3971 18.4047 19.4241 18.6404 19.683 19.6089C19.9349 20.7946 18.8116 21.1782 17.6952 21.0419C16.8724 20.8709 16.4148 20.4525 15.9201 19.6921C15.0095 20.2191 15.0095 20.2191 14.0734 20.7576C14.2953 21.243 14.5287 21.4626 14.9009 21.8832C16.6621 23.6699 21.0697 23.582 21.8602 20.8778C21.8926 20.7853 22.1052 20.1659 21.9342 19.2113ZM12.8276 11.8706H10.5533C10.5533 13.8352 10.5441 15.7859 10.5441 17.7506C10.5441 19.001 10.6088 20.1474 10.4054 20.4987C10.0726 21.1898 9.21043 21.1043 8.81751 20.9702C8.41765 20.7737 8.21426 20.4941 7.97851 20.0989C7.91379 19.9856 7.86525 19.8978 7.84905 19.8908C7.23195 20.2676 6.61712 20.6466 6 21.0234C6.30743 21.6544 6.76042 22.2021 7.34056 22.5581C8.2073 23.0781 9.3722 23.2376 10.5903 22.9579C11.3831 22.7268 12.0672 22.2484 12.4254 21.5203C12.9432 20.5657 12.8322 19.4101 12.8276 18.1319C12.8392 16.0471 12.8276 13.9623 12.8276 11.8706Z" fill="#323330"/>
</svg>
