<svg width="24" height="24" viewBox="0 0 24 24" fill="none" xmlns="http://www.w3.org/2000/svg">
<g clip-path="url(#clip0_501_148)">
<path d="M12.0002 4.80017C8.80014 4.80017 6.8002 6.39977 6.00009 9.59866C7.20023 7.99906 8.60027 7.39944 10.2002 7.79919C11.1131 8.02728 11.7656 8.68961 12.4879 9.4225C13.6644 10.6163 15.026 11.9981 18.0004 11.9981C21.2002 11.9981 23.2004 10.3985 24.0002 7.19926C22.8004 8.79886 21.4004 9.39879 19.8002 8.99904C18.8875 8.77095 18.2351 8.10859 17.5127 7.37573C16.3363 6.18188 14.9744 4.80017 12.0002 4.80017ZM6.00009 11.9981C2.80029 11.9981 0.800043 13.5977 0.000244141 16.7968C1.20009 15.1973 2.60013 14.5973 4.20033 14.9974C5.11295 15.2258 5.76542 15.8878 6.48777 16.6204C7.66423 17.8142 9.02613 19.1962 12.0002 19.1962C15.2003 19.1962 17.2003 17.5966 18.0004 14.3975C16.8002 15.9971 15.4002 16.597 13.8003 16.1969C12.8874 15.9691 12.2349 15.3065 11.5126 14.5739C10.3361 13.3801 8.97451 11.9981 6.00009 11.9981Z" fill="#06B6D4"/>
</g>
<defs>
<clipPath id="clip0_501_148">
<rect width="24" height="24" fill="white"/>
</clipPath>
</defs>
</svg>
