<svg width="24" height="24" viewBox="0 0 24 24" fill="none" xmlns="http://www.w3.org/2000/svg">
<g clip-path="url(#clip0_501_135)">
<path d="M23.6384 5.3964C23.647 5.4282 23.6514 5.46099 23.6515 5.49394V10.6141C23.6515 10.6798 23.6341 10.7444 23.6012 10.8013C23.5683 10.8581 23.5209 10.9053 23.4639 10.938L19.1664 13.4122V18.3163C19.1664 18.4498 19.0955 18.573 18.9798 18.6402L10.0092 23.8043C9.98863 23.8159 9.96623 23.8234 9.94384 23.8313C9.93544 23.8341 9.9275 23.8393 9.91864 23.8416C9.85593 23.8581 9.79 23.8581 9.72732 23.8416C9.71704 23.8388 9.70771 23.8332 9.69791 23.8295C9.67737 23.822 9.65592 23.8155 9.63631 23.8043L0.667579 18.6402C0.610603 18.6075 0.563263 18.5603 0.530328 18.5035C0.497392 18.4466 0.480026 18.3821 0.47998 18.3163V2.95577C0.47998 2.92217 0.484648 2.88951 0.493048 2.85775C0.495847 2.84703 0.502382 2.83723 0.506114 2.82651C0.513115 2.8069 0.519648 2.78683 0.529915 2.76864C0.536913 2.7565 0.54718 2.74671 0.55558 2.7355C0.566313 2.72057 0.576112 2.70516 0.588712 2.69211C0.599445 2.68138 0.613447 2.67343 0.625579 2.6641C0.639112 2.65289 0.651244 2.64077 0.666645 2.63189H0.667111L5.15171 0.0498724C5.2085 0.0171973 5.27287 0 5.33836 0C5.40388 0 5.46825 0.0171973 5.52503 0.0498724L10.0096 2.63189H10.0106C10.0255 2.64123 10.0381 2.65289 10.0516 2.66364C10.0638 2.67298 10.0773 2.68138 10.088 2.69163C10.1011 2.70516 10.1104 2.72057 10.1216 2.7355C10.1296 2.74671 10.1403 2.7565 10.1468 2.76864C10.1576 2.78729 10.1636 2.8069 10.1711 2.82651C10.1748 2.83723 10.1814 2.84703 10.1842 2.85823C10.1927 2.89003 10.1971 2.92282 10.1972 2.95577V12.5498L13.9343 10.3981V5.49346C13.9343 5.4608 13.9389 5.42765 13.9473 5.3964C13.9506 5.3852 13.9566 5.3754 13.9604 5.36468C13.9679 5.34507 13.9744 5.325 13.9847 5.30679C13.9916 5.29467 14.0019 5.28488 14.0099 5.27367C14.021 5.25874 14.0304 5.24333 14.0435 5.23028C14.0542 5.21952 14.0677 5.2116 14.0798 5.20227C14.0938 5.19106 14.106 5.17894 14.1209 5.17006H14.1214L18.6064 2.58804C18.6632 2.55531 18.7276 2.5381 18.7931 2.5381C18.8586 2.5381 18.923 2.55531 18.9798 2.58804L23.4644 5.17006C23.4802 5.1794 23.4924 5.19106 23.5064 5.20181C23.518 5.21112 23.5316 5.21952 23.5423 5.22979C23.5553 5.24333 23.5647 5.25874 23.5759 5.27367C23.5843 5.28488 23.5946 5.29467 23.6011 5.30679C23.6118 5.325 23.6179 5.34507 23.6254 5.36468C23.6296 5.3754 23.6356 5.3852 23.6384 5.3964ZM22.9039 10.3981V6.14026L21.3345 7.04372L19.1664 8.29203V12.5498L22.9044 10.3981H22.9039ZM18.4193 18.1003V13.8397L16.2867 15.0577L10.1968 18.5333V22.8341L18.4193 18.1003ZM1.22757 3.60209V18.1003L9.44918 22.8336V18.5338L5.15404 16.103L5.15265 16.102L5.15078 16.1011C5.13631 16.0927 5.12419 16.0806 5.11065 16.0703C5.09899 16.061 5.08545 16.0535 5.07518 16.0432L5.07424 16.0418C5.06212 16.0302 5.05372 16.0157 5.04345 16.0027C5.03411 15.9901 5.02291 15.9793 5.01544 15.9662L5.01499 15.9649C5.00659 15.9508 5.00145 15.934 4.99538 15.9182C4.98931 15.9042 4.98139 15.8911 4.97764 15.8762V15.8757C4.97299 15.858 4.97205 15.8393 4.97018 15.8211C4.96831 15.8071 4.96459 15.7931 4.96459 15.7791V5.75386L2.79695 4.50507L1.22757 3.60255V3.60209ZM5.33884 0.804929L1.6023 2.95577L5.33791 5.1066L9.07399 2.95529L5.33791 0.804929H5.33884ZM7.282 14.2279L9.44963 12.9801V3.60209L7.88028 4.50555L5.71216 5.75386V15.1319L7.282 14.2279ZM18.7931 3.34308L15.057 5.49394L18.7931 7.64477L22.5287 5.49346L18.7931 3.34308ZM18.4193 8.29203L16.2512 7.04372L14.6818 6.14026V10.3981L16.8495 11.6459L18.4193 12.5498V8.29203ZM9.8225 17.887L15.3025 14.7585L18.0418 13.1952L14.3085 11.0458L10.0101 13.5205L6.09249 15.7759L9.8225 17.887Z" fill="#FF2D20"/>
</g>
<defs>
<clipPath id="clip0_501_135">
<rect width="24" height="24" fill="white"/>
</clipPath>
</defs>
</svg>
