<svg width="50" height="50" viewBox="0 0 50 50" fill="none" xmlns="http://www.w3.org/2000/svg">
<g clip-path="url(#clip0_462_3869)">
<path d="M16.6691 1.50125H31.4644L16.1052 47.0354C16.0267 47.268 15.9125 47.4869 15.7665 47.6842C15.6209 47.8818 15.4452 48.0549 15.2458 48.198C15.0464 48.3412 14.8265 48.4524 14.5927 48.5274C14.3589 48.6024 14.1152 48.6412 13.8701 48.6412H2.35561C1.98183 48.6412 1.61306 48.5524 1.28054 48.3811C0.947665 48.2104 0.66032 47.9627 0.442358 47.6586C0.224254 47.3545 0.0815715 47.0029 0.0260807 46.6329C-0.029548 46.2629 0.00420423 45.8848 0.123587 45.5303L14.4333 3.10573C14.5114 2.87322 14.6258 2.65445 14.772 2.45693C14.9177 2.25942 15.094 2.08629 15.2927 1.94316C15.4921 1.80002 15.7121 1.68876 15.9459 1.61375C16.1796 1.53875 16.4234 1.5 16.6684 1.5V1.50063L16.6691 1.50125Z" fill="url(#paint0_linear_462_3869)"/>
<path d="M43.9433 48.6413H30.658C30.5099 48.6413 30.3618 48.6275 30.2155 48.5994C30.0699 48.5719 29.9267 48.5306 29.7886 48.4762C29.6505 48.4219 29.518 48.3544 29.3923 48.2756C29.2669 48.1963 29.1491 48.1055 29.0404 48.0043L13.9645 33.9247C13.805 33.7758 13.6939 33.5824 13.6457 33.3696C13.5975 33.1569 13.6144 32.9345 13.6944 32.7315C13.7743 32.5285 13.9135 32.3542 14.0938 32.2314C14.2745 32.1089 14.4876 32.0433 14.7058 32.0433H38.1673L43.942 48.6419L43.9433 48.6413Z" fill="#0078D4"/>
<path d="M31.5175 1.50125L21.1606 32.0464L38.0829 32.0426L43.8877 48.6413H30.6524C30.5156 48.64 30.3787 48.6275 30.2437 48.6031C30.1087 48.5788 29.9761 48.5431 29.8474 48.4956C29.5892 48.4016 29.349 48.2639 29.1373 48.0887L18.9604 38.5906L16.1115 46.9924C16.0377 47.2024 15.9365 47.4018 15.8102 47.5849C15.5572 47.9534 15.211 48.2481 14.807 48.4394C14.6059 48.5345 14.3929 48.6024 14.1739 48.6413H2.36245C1.98492 48.6425 1.6124 48.5525 1.27675 48.3787C0.941054 48.2051 0.652089 47.9532 0.434288 47.6443C0.216484 47.3355 0.076244 46.9788 0.0254222 46.6043C-0.0252156 46.2296 0.0148695 45.8482 0.142305 45.4923L14.4289 3.13761C14.5033 2.90072 14.6151 2.67758 14.7601 2.47632C14.9045 2.27505 15.0808 2.09754 15.2808 1.95128C15.4808 1.80502 15.7033 1.69127 15.939 1.61501C16.1746 1.53875 16.4215 1.5 16.6696 1.50125H31.5181H31.5175Z" fill="url(#paint1_linear_462_3869)"/>
<path d="M49.8762 45.5304C49.9956 45.885 50.0295 46.2629 49.9743 46.633C49.9188 47.0029 49.7763 47.3545 49.5587 47.6587C49.3407 47.9626 49.0534 48.2102 48.7207 48.3811C48.388 48.5519 48.0194 48.6412 47.6454 48.6413H31.1556C31.5293 48.6413 31.8981 48.5519 32.2313 48.3812C32.5638 48.2106 32.8513 47.9625 33.0694 47.6587C33.2876 47.3549 33.4301 47.003 33.4857 46.633C33.5414 46.263 33.5076 45.8848 33.3882 45.5304L19.0779 3.10452C18.9204 2.63716 18.6202 2.23099 18.2197 1.94319C18.0209 1.80005 17.8009 1.68942 17.5678 1.61442C17.3346 1.53941 17.0909 1.50128 16.8465 1.50128H33.3357C33.5807 1.50128 33.8239 1.53941 34.0576 1.61442C34.2908 1.68942 34.5108 1.80068 34.7102 1.94319C34.9089 2.08632 35.0846 2.25946 35.2302 2.45635C35.3758 2.65324 35.4896 2.872 35.5684 3.10452L49.8787 45.5304H49.8762Z" fill="url(#paint2_linear_462_3869)"/>
</g>
<defs>
<linearGradient id="paint0_linear_462_3869" x1="22.0688" y1="4.99523" x2="6.6928" y2="50.417" gradientUnits="userSpaceOnUse">
<stop stop-color="#114A8B"/>
<stop offset="1" stop-color="#0669BC"/>
</linearGradient>
<linearGradient id="paint1_linear_462_3869" x1="26.8628" y1="26.1591" x2="23.3063" y2="27.3654" gradientUnits="userSpaceOnUse">
<stop stop-opacity="0.3"/>
<stop offset="0.1" stop-opacity="0.2"/>
<stop offset="0.3" stop-opacity="0.1"/>
<stop offset="0.6" stop-opacity="0.1"/>
<stop offset="1" stop-opacity="0"/>
</linearGradient>
<linearGradient id="paint2_linear_462_3869" x1="24.9002" y1="3.67018" x2="41.7763" y2="48.6294" gradientUnits="userSpaceOnUse">
<stop stop-color="#3CCBF4"/>
<stop offset="1" stop-color="#2892DF"/>
</linearGradient>
<clipPath id="clip0_462_3869">
<rect width="50" height="50" fill="white"/>
</clipPath>
</defs>
</svg>
