<svg width="50" height="50" viewBox="0 0 50 50" fill="none" xmlns="http://www.w3.org/2000/svg">
<g clip-path="url(#clip0_461_2084)">
<path d="M43.6779 10.2114L27.9152 0.847024C26.0508 -0.254672 23.7202 -0.254672 21.8135 0.847024L6.0508 10.2114C4.18638 11.3131 2.99994 13.3894 2.99994 15.6351V34.3639C2.99994 36.6097 4.144 38.6436 6.0508 39.7877L21.8135 49.1521C22.7457 49.7029 23.805 49.9995 24.8643 49.9995C25.9236 49.9995 26.983 49.7029 27.9152 49.1521L43.6779 39.7877C45.5423 38.686 46.7287 36.6097 46.7287 34.3639V15.5928C46.7287 13.3894 45.5846 11.3131 43.6779 10.2114Z" fill="white"/>
<path d="M43.678 10.2114L27.9153 0.84703C26.9831 0.296183 25.9237 -0.000427246 24.8644 -0.000427246C23.8051 -0.000427246 22.7458 0.296183 21.8136 0.84703L6.05085 10.2114C4.18644 11.3131 3 13.3894 3 15.6351V34.3639C3 36.6097 4.14407 38.6437 6.05085 39.7877L21.8136 49.1521C22.7458 49.7029 23.8051 49.9995 24.8644 49.9995C25.9237 49.9995 26.9831 49.7029 27.9153 49.1521L43.678 39.7877C45.5424 38.686 46.7288 36.6097 46.7288 34.3639V15.5928C46.7288 13.3894 45.5848 11.3131 43.678 10.2114ZM22.3644 48.1352L6.6017 38.7707C5.07625 37.8385 4.1017 36.1437 4.1017 34.3216V15.5928C4.1017 13.7708 5.07625 12.0335 6.6017 11.1437L22.3644 1.77924C23.1271 1.31313 23.9746 1.10126 24.8644 1.10126C25.7543 1.10126 26.6017 1.3555 27.3644 1.77924L43.1271 11.1437C44.4407 11.9064 45.2881 13.2623 45.5424 14.7453C45.0339 13.6437 43.8475 13.3046 42.4492 14.1097L27.5763 23.347C25.7118 24.4487 24.3559 25.6351 24.3559 27.8809V46.2707C24.3559 47.6266 24.9067 48.4742 25.7118 48.7284C25.4576 48.7708 25.161 48.8131 24.8644 48.8131C24.017 48.8555 23.1271 48.6012 22.3644 48.1352Z" fill="#2A3238"/>
<path d="M39.5677 36.1436L35.627 38.4741C35.5423 38.5164 35.4576 38.6012 35.4576 38.7283V39.7452C35.4576 39.8724 35.5423 39.9147 35.627 39.8724L39.6101 37.4571C39.6948 37.4147 39.7372 37.2876 39.7372 37.1605V36.2707C39.7372 36.1436 39.6525 36.1012 39.5677 36.1436Z" fill="#4DA925"/>
<path d="M31.1779 27.4996C31.305 27.4148 31.3898 27.4996 31.4321 27.6691V29.025C31.983 28.8131 32.4915 28.7284 32.9576 28.8555C33.0423 28.8979 33.0847 29.025 33.0423 29.1521L32.7457 30.3386C32.7033 30.4233 32.6609 30.5081 32.6185 30.5928C32.5762 30.6352 32.5762 30.6352 32.5338 30.6352C32.4914 30.6352 32.4491 30.6775 32.4067 30.6352C32.1948 30.5928 31.7287 30.4657 30.966 30.8894C30.1609 31.3131 29.8643 31.9911 29.9067 32.4996C29.9067 33.1352 30.2457 33.3047 31.305 33.3047C32.7457 33.347 33.3812 33.9826 33.4236 35.4233C33.4236 36.864 32.6609 38.4318 31.4745 39.364L31.5168 40.7199C31.5168 40.8894 31.4321 41.0589 31.305 41.1436L30.4999 41.6097C30.3728 41.6945 30.288 41.6097 30.2456 41.4403V40.1267C29.5677 40.4233 28.8898 40.4657 28.4237 40.2962C28.3389 40.2538 28.2965 40.1267 28.3389 39.9996L28.6355 38.7708C28.6779 38.686 28.7203 38.5589 28.7626 38.5165C28.805 38.4742 28.805 38.4742 28.8473 38.4742C28.8897 38.4318 28.9321 38.4318 28.9745 38.4742C29.4406 38.6436 30.0762 38.5589 30.627 38.2623C31.3898 37.8809 31.8559 37.1182 31.8559 36.3555C31.8559 35.6775 31.4745 35.3809 30.5847 35.3809C29.4406 35.3809 28.3813 35.1691 28.3389 33.4742C28.3389 32.0758 29.0593 30.6352 30.2033 29.7453V28.3894C30.2033 28.2199 30.2881 28.0504 30.4152 27.9657L31.1779 27.4996Z" fill="white"/>
</g>
<defs>
<clipPath id="clip0_461_2084">
<rect width="50" height="50" fill="white"/>
</clipPath>
</defs>
</svg>
