<svg width="50" height="50" viewBox="0 0 50 50" fill="none" xmlns="http://www.w3.org/2000/svg">
<path fill-rule="evenodd" clip-rule="evenodd" d="M10.3851 5C7.53225 5 5.4212 7.49705 5.5157 10.2051C5.60645 12.8068 5.48855 16.1763 4.64033 18.9241C3.78906 21.6797 2.35039 23.4259 0 23.65V26.1805C2.35039 26.4051 3.78906 28.1504 4.64023 30.9063C5.48855 33.6542 5.60635 37.0238 5.5156 39.6254C5.4211 42.333 7.53215 44.8304 10.3855 44.8304H39.6186C42.4716 44.8304 44.5823 42.3334 44.4877 39.6254C44.397 37.0238 44.5148 33.6542 45.3631 30.9063C46.2143 28.1504 47.6495 26.4044 50 26.1805V23.65C47.6496 23.4254 46.2144 21.6801 45.3631 18.9241C44.5147 16.1767 44.397 12.8068 44.4877 10.2051C44.5823 7.49745 42.4716 5 39.6186 5H10.3851ZM33.8983 29.5182C33.8983 33.247 31.117 35.5085 26.5012 35.5085H18.6441C18.4193 35.5085 18.2037 35.4192 18.0448 35.2603C17.8858 35.1013 17.7966 34.8858 17.7966 34.661V15.1695C17.7966 14.9447 17.8858 14.7292 18.0448 14.5703C18.2037 14.4114 18.4193 14.3221 18.6441 14.3221H26.4566C30.3053 14.3221 32.8312 16.4068 32.8312 19.6076C32.8312 21.8542 31.1319 23.8655 28.9672 24.2178V24.3349C31.914 24.6582 33.8983 26.6992 33.8983 29.5182ZM25.6446 17.0085H21.1644V23.3366H24.9378C27.8548 23.3366 29.4632 22.162 29.4632 20.0625C29.4629 18.0949 28.0801 17.0085 25.6446 17.0085ZM21.1644 25.8475V32.8212H25.8093C28.8465 32.8212 30.4552 31.6025 30.4552 29.3123C30.4552 27.022 28.8013 25.847 25.614 25.847L21.1644 25.8475Z" fill="#7952B3"/>
</svg>
