<svg width="57" height="57" viewBox="0 0 57 57" fill="none" xmlns="http://www.w3.org/2000/svg">
<g clip-path="url(#clip0_461_334)">
<path d="M53.6797 0.000549316L49.1009 51.2946L28.5191 57.0003L7.99395 51.3026L3.41998 0.000549316H53.6797Z" fill="#264DE4"/>
<path d="M45.1809 48.0281L49.0938 4.19501H28.5498V52.6389L45.1809 48.0281Z" fill="#2965F1"/>
<path d="M13.9057 23.2222L14.4697 29.5142H28.5499V23.2222H13.9057Z" fill="#EBEBEB"/>
<path d="M28.5499 10.487H28.5281H12.7726L13.3445 16.7791H28.5499V10.487Z" fill="#EBEBEB"/>
<path d="M28.5498 46.1093V39.563L28.5222 39.5704L21.5148 37.6782L21.0668 32.66H17.6618H14.7507L15.6322 42.5394L28.5208 46.1174L28.5498 46.1093Z" fill="#EBEBEB"/>
<path d="M36.276 29.5141L35.5456 37.6743L28.5281 39.5684V46.1144L41.427 42.5395L41.5216 41.4765L43.0002 24.9117L43.1537 23.2222L44.2896 10.487H28.5281V16.7791H37.3941L36.8216 23.2222H28.5281V29.5141H36.276Z" fill="white"/>
</g>
<defs>
<clipPath id="clip0_461_334">
<rect width="57" height="57" fill="white"/>
</clipPath>
</defs>
</svg>
