<svg width="50" height="50" viewBox="0 0 50 50" fill="none" xmlns="http://www.w3.org/2000/svg">
<g clip-path="url(#clip0_461_2068)">
<path d="M49.5071 20.5444C49.3715 20.4367 48.1056 19.4808 45.4359 19.4808C44.731 19.4839 44.0275 19.5444 43.3324 19.6616C42.8157 16.1201 39.8877 14.3934 39.7564 14.3159L39.0395 13.9025L38.568 14.5829C37.9776 15.4968 37.5465 16.5043 37.2935 17.5625C36.8155 19.5842 37.1062 21.483 38.1331 23.1064C36.893 23.7974 34.9037 23.9676 34.5011 23.9826H1.56538C0.705102 23.9838 0.00703287 24.679 0.00234457 25.5392C-0.0360717 28.4245 0.452774 31.2927 1.44481 34.0024C2.57938 36.9778 4.26732 39.1695 6.46332 40.5108C8.92417 42.0178 12.9222 42.879 17.4541 42.879C19.5014 42.8854 21.5449 42.7001 23.5577 42.3257C26.3558 41.8119 29.0482 40.834 31.5236 39.4321C33.5633 38.2509 35.3991 36.7483 36.9598 34.982C39.5692 32.0281 41.1237 28.7384 42.2798 25.8148H42.7405C45.5974 25.8148 47.3543 24.6715 48.3231 23.7135C48.9669 23.1025 49.4696 22.3581 49.7957 21.5326L50.0001 20.9341L49.5071 20.5444Z" fill="#2496ED"/>
<path d="M4.61811 23.0181H9.03165C9.2445 23.0181 9.417 22.8456 9.417 22.6328V18.7014C9.4182 18.4886 9.2466 18.3151 9.0338 18.3139H9.03165H4.61811C4.40525 18.3139 4.23276 18.4865 4.23276 18.6993V18.7014V22.6327C4.23276 22.8456 4.40525 23.0181 4.61811 23.0181Z" fill="#2496ED"/>
<path d="M10.7002 23.0181H15.1137C15.3266 23.0181 15.4991 22.8456 15.4991 22.6328V18.7014C15.5003 18.4886 15.3287 18.3151 15.1158 18.3139H15.1137H10.7001C10.4861 18.3139 10.3126 18.4874 10.3126 18.7014V22.6327C10.3139 22.8459 10.487 23.0181 10.7002 23.0181Z" fill="#2496ED"/>
<path d="M16.8748 23.0181H21.2884C21.5012 23.0181 21.6737 22.8456 21.6737 22.6328V18.7014C21.6749 18.4886 21.5033 18.3151 21.2905 18.3139H21.2883H16.8748C16.6619 18.3139 16.4894 18.4865 16.4894 18.6993V18.7014V22.6327C16.4895 22.8456 16.662 23.0181 16.8748 23.0181Z" fill="#2496ED"/>
<path d="M22.9762 23.0181H27.3898C27.603 23.0181 27.7761 22.846 27.7773 22.6328V18.7014C27.7773 18.4874 27.6038 18.3139 27.3898 18.3139H22.9762C22.7634 18.3139 22.5909 18.4865 22.5909 18.6993V18.7014V22.6327C22.5909 22.8456 22.7634 23.0181 22.9762 23.0181Z" fill="#2496ED"/>
<path d="M10.7002 17.3624H15.1137C15.3269 17.3612 15.4991 17.188 15.4991 16.9748V13.0436C15.4991 12.8307 15.3265 12.6582 15.1137 12.6582H10.7002C10.487 12.6582 10.3138 12.8304 10.3127 13.0436V16.9748C10.3138 17.1884 10.4866 17.3612 10.7002 17.3624Z" fill="#2496ED"/>
<path d="M16.8748 17.3624H21.2883C21.5014 17.3612 21.6737 17.188 21.6737 16.9748V13.0436C21.6737 12.8307 21.5011 12.6582 21.2883 12.6582H16.8748C16.6619 12.6582 16.4894 12.8308 16.4894 13.0436V16.9748C16.4894 17.188 16.6616 17.3612 16.8748 17.3624Z" fill="#2496ED"/>
<path d="M22.9762 17.3624H27.3898C27.6033 17.3612 27.7761 17.1884 27.7773 16.9748V13.0436C27.7761 12.8304 27.603 12.6582 27.3898 12.6582H22.9762C22.7634 12.6582 22.5909 12.8308 22.5909 13.0436V16.9748C22.5909 17.188 22.7631 17.3612 22.9762 17.3624Z" fill="#2496ED"/>
<path d="M22.9762 11.7044H27.3898C27.603 11.7044 27.7761 11.5322 27.7773 11.3191V7.38559C27.7761 7.17239 27.603 7.00024 27.3898 7.00024H22.9762C22.7634 7.00024 22.5909 7.17274 22.5909 7.38559V11.319C22.5909 11.5319 22.7634 11.7044 22.9762 11.7044Z" fill="#2496ED"/>
<path d="M29.1315 23.0181H33.5451C33.7583 23.0181 33.9314 22.846 33.9326 22.6328V18.7014C33.9326 18.4874 33.7591 18.3139 33.5451 18.3139H29.1315C28.9187 18.3139 28.7462 18.4865 28.7462 18.6993V18.7014V22.6327C28.7462 22.8456 28.9187 23.0181 29.1315 23.0181Z" fill="#2496ED"/>
</g>
<defs>
<clipPath id="clip0_461_2068">
<rect width="50" height="50" fill="white"/>
</clipPath>
</defs>
</svg>
