<svg width="50" height="50" viewBox="0 0 50 50" fill="none" xmlns="http://www.w3.org/2000/svg">
<g clip-path="url(#clip0_461_2089)">
<path d="M16.6667 50.0005C21.2667 50.0005 25 46.267 25 41.667V33.3336H16.6667C12.0667 33.3336 8.33334 37.067 8.33334 41.667C8.33334 46.267 12.0667 50.0005 16.6667 50.0005Z" fill="#0ACF83"/>
<path d="M8.33334 25.0002C8.33334 20.4002 12.0667 16.6669 16.6667 16.6669H25V33.3335H16.6667C12.0667 33.3335 8.33334 29.6002 8.33334 25.0002Z" fill="#A259FF"/>
<path d="M8.33334 8.33355C8.33334 3.73358 12.0667 0.000244141 16.6667 0.000244141H25V16.6669H16.6667C12.0667 16.6669 8.33334 12.9335 8.33334 8.33355Z" fill="#F24E1E"/>
<path d="M25 0.000244141H33.3334C37.9334 0.000244141 41.6667 3.73358 41.6667 8.33355C41.6667 12.9335 37.9334 16.6669 33.3334 16.6669H25V0.000244141Z" fill="#FF7262"/>
<path d="M41.6667 25.0002C41.6667 29.6002 37.9334 33.3335 33.3334 33.3335C28.7334 33.3335 25 29.6002 25 25.0002C25 20.4002 28.7334 16.6669 33.3334 16.6669C37.9334 16.6669 41.6667 20.4002 41.6667 25.0002Z" fill="#1ABCFE"/>
</g>
<defs>
<clipPath id="clip0_461_2089">
<rect width="50" height="50" fill="white"/>
</clipPath>
</defs>
</svg>
