<svg width="50" height="50" viewBox="0 0 50 50" fill="none" xmlns="http://www.w3.org/2000/svg">
<g clip-path="url(#clip0_461_2079)">
<path d="M49.0569 22.7727L27.2265 0.942941C25.97 -0.314314 23.931 -0.314314 22.673 0.942941L18.1398 5.47622L23.8904 11.2269C25.2267 10.7754 26.7591 11.0783 27.8243 12.1436C28.8946 13.2156 29.1954 14.7612 28.7329 16.1018L34.2749 21.6442C35.6157 21.1823 37.1628 21.4811 38.2337 22.5537C39.7304 24.0499 39.7304 26.4747 38.2337 27.9718C36.7366 29.4691 34.3118 29.4691 32.814 27.9718C31.6882 26.8449 31.4101 25.1915 31.98 23.8046L26.8116 18.6361L26.8111 32.2373C27.1857 32.4226 27.5279 32.6673 27.8243 32.9619C29.321 34.4581 29.321 36.8831 27.8243 38.3814C26.3273 39.8779 23.9013 39.8779 22.4064 38.3814C20.9097 36.8831 20.9097 34.4583 22.4064 32.9622C22.7651 32.6033 23.1913 32.3191 23.6605 32.126V18.398C23.1906 18.2062 22.7642 17.9218 22.4064 17.5618C21.2724 16.4294 20.9998 14.7655 21.5808 13.3731L15.9121 7.70362L0.943358 22.6717C-0.314453 23.9302 -0.314453 25.9695 0.943358 27.2269L22.7742 49.057C24.031 50.3143 26.0696 50.3143 27.328 49.057L49.0567 27.3283C50.3144 26.0704 50.3144 24.03 49.0569 22.7727Z" fill="#DE4C36"/>
</g>
<defs>
<clipPath id="clip0_461_2079">
<rect width="50" height="50" fill="white"/>
</clipPath>
</defs>
</svg>
