<svg width="50" height="50" viewBox="0 0 50 50" fill="none" xmlns="http://www.w3.org/2000/svg">
<g clip-path="url(#clip0_461_2081)">
<path d="M25 0.500244C11.1946 0.500244 -0.00012207 11.693 -0.00012207 25.5004C-0.00012207 36.5462 7.16315 45.9172 17.0965 49.223C18.3459 49.4544 18.8047 48.6807 18.8047 48.0204C18.8047 47.4243 18.7813 45.4548 18.7708 43.3658C11.8155 44.8781 10.3479 40.4161 10.3479 40.4161C9.21075 37.5264 7.57215 36.7582 7.57215 36.7582C5.304 35.2065 7.74315 35.2383 7.74315 35.2383C10.2537 35.4147 11.5756 37.8146 11.5756 37.8146C13.8053 41.6367 17.424 40.5315 18.8506 39.8929C19.0749 38.2769 19.7229 37.1742 20.4378 36.5499C14.885 35.9176 9.0476 33.7739 9.0476 24.1947C9.0476 21.4654 10.0243 19.2351 11.6236 17.4844C11.364 16.8545 10.5084 14.3119 11.8658 10.8683C11.8658 10.8683 13.965 10.1963 18.7425 13.4309C20.7366 12.8768 22.8754 12.5992 25 12.5898C27.1246 12.5992 29.2649 12.8768 31.2629 13.4309C36.0347 10.1963 38.1311 10.8683 38.1311 10.8683C39.4918 14.3119 38.6357 16.8545 38.3761 17.4844C39.979 19.2351 40.949 21.4652 40.949 24.1947C40.949 33.7967 35.1006 35.9111 29.5338 36.5299C30.4304 37.3058 31.2293 38.8273 31.2293 41.1596C31.2293 44.5046 31.2003 47.1968 31.2003 48.0204C31.2003 48.6856 31.6504 49.4652 32.9178 49.2197C42.8456 45.9102 49.9999 36.5425 49.9999 25.5004C49.9999 11.693 38.8068 0.500244 25 0.500244Z" fill="#161614"/>
<path d="M9.36319 36.1135C9.30829 36.2376 9.11259 36.2749 8.93479 36.1898C8.75339 36.1082 8.65144 35.9388 8.71029 35.8141C8.76419 35.6863 8.95989 35.6506 9.14084 35.7365C9.32259 35.8179 9.42614 35.9888 9.36319 36.1135ZM10.5929 37.2108C10.4737 37.3213 10.2406 37.27 10.0824 37.0953C9.91884 36.921 9.88829 36.688 10.0092 36.5757C10.1322 36.4653 10.3582 36.5169 10.5222 36.6914C10.6857 36.8676 10.7176 37.099 10.5929 37.2108ZM11.4366 38.6146C11.2833 38.7211 11.0327 38.6213 10.878 38.3989C10.7249 38.1768 10.7249 37.9101 10.8814 37.8033C11.0366 37.6964 11.2833 37.7925 11.4402 38.0131C11.5931 38.2391 11.5933 38.5056 11.4366 38.6146ZM12.8633 40.2406C12.7262 40.3916 12.4344 40.3512 12.2207 40.145C12.0023 39.9434 11.9413 39.6573 12.0788 39.5062C12.2174 39.3548 12.5109 39.3973 12.7262 39.6018C12.9432 39.803 13.0094 40.0912 12.8633 40.2406ZM14.7071 40.7896C14.6469 40.9853 14.3658 41.0743 14.0826 40.9912C13.7999 40.9055 13.6148 40.6761 13.6719 40.4783C13.7307 40.2812 14.013 40.1885 14.2983 40.2775C14.5806 40.3628 14.7659 40.5904 14.7071 40.7896ZM16.8059 41.0224C16.8129 41.2287 16.5727 41.3996 16.2755 41.4034C15.9765 41.4098 15.7347 41.243 15.7316 41.0402C15.7316 40.832 15.9663 40.6626 16.2651 40.6577C16.5623 40.6518 16.8059 40.8175 16.8059 41.0224ZM18.8674 40.9434C18.903 41.1445 18.6964 41.3512 18.4013 41.4061C18.1111 41.459 17.8425 41.3349 17.8054 41.1355C17.7694 40.9292 17.9799 40.7228 18.2695 40.6693C18.5652 40.6179 18.8297 40.7389 18.8674 40.9434Z" fill="#161614"/>
</g>
<defs>
<clipPath id="clip0_461_2081">
<rect width="50" height="50" fill="white"/>
</clipPath>
</defs>
</svg>
