<svg width="50" height="50" viewBox="0 0 50 50" fill="none" xmlns="http://www.w3.org/2000/svg">
<g clip-path="url(#clip0_461_2065)">
<path d="M50 0.000488281H0V50.0002H50V0.000488281Z" fill="#F7DF1E"/>
<path d="M33.5872 39.0629C34.5944 40.7074 35.9047 41.9161 38.2222 41.9161C40.169 41.9161 41.4126 40.9431 41.4126 39.5986C41.4126 37.9875 40.1349 37.4169 37.992 36.4796L36.8174 35.9756C33.4269 34.5312 31.1745 32.7217 31.1745 28.8963C31.1745 25.3725 33.8595 22.6899 38.0555 22.6899C41.0428 22.6899 43.1904 23.7296 44.738 26.4518L41.0793 28.801C40.2737 27.3566 39.4047 26.7875 38.0555 26.7875C36.6793 26.7875 35.8071 27.6606 35.8071 28.801C35.8071 30.2106 36.6801 30.7812 38.696 31.6542L39.8706 32.1574C43.8626 33.8693 46.1166 35.6145 46.1166 39.5383C46.1166 43.7685 42.7936 46.0859 38.3309 46.0859C33.9674 46.0859 31.1483 44.0066 29.769 41.2812L33.5872 39.0629ZM16.9896 39.4701C17.7277 40.7796 18.3991 41.8867 20.0134 41.8867C21.5571 41.8867 22.5309 41.2828 22.5309 38.9344V22.9582H27.2293V38.9979C27.2293 43.8629 24.3769 46.0772 20.2134 46.0772C16.4515 46.0772 14.273 44.1304 13.165 41.7856L16.9896 39.4701Z" fill="black"/>
</g>
<defs>
<clipPath id="clip0_461_2065">
<rect width="50" height="50" fill="white"/>
</clipPath>
</defs>
</svg>
