<svg width="50" height="50" viewBox="0 0 50 50" fill="none" xmlns="http://www.w3.org/2000/svg">
<path d="M49.2469 11.243C49.2648 11.3092 49.274 11.3775 49.2741 11.4462V22.1132C49.2741 22.2501 49.238 22.3846 49.1694 22.5031C49.1007 22.6216 49.0021 22.7198 48.8833 22.7879L39.9302 27.9426V38.1595C39.9302 38.4376 39.7825 38.6942 39.5414 38.8342L20.8526 49.5927C20.8098 49.617 20.7632 49.6326 20.7165 49.6491C20.699 49.6549 20.6825 49.6656 20.664 49.6705C20.5334 49.7049 20.396 49.7049 20.2654 49.6705C20.244 49.6646 20.2246 49.653 20.2042 49.6452C20.1614 49.6296 20.1167 49.616 20.0758 49.5927L1.39095 38.8342C1.27225 38.766 1.17363 38.6678 1.10501 38.5493C1.0364 38.4309 1.00022 38.2964 1.00012 38.1595V6.15834C1.00012 6.08834 1.00985 6.02029 1.02735 5.95414C1.03318 5.93179 1.04679 5.91139 1.05457 5.88904C1.06915 5.84819 1.08276 5.80639 1.10415 5.76849C1.11873 5.74319 1.14012 5.72279 1.15762 5.69944C1.17998 5.66834 1.2004 5.63624 1.22665 5.60904C1.24901 5.58669 1.27818 5.57014 1.30345 5.55069C1.33165 5.52734 1.35692 5.50209 1.38901 5.48359H1.38998L10.7329 0.104389C10.8512 0.0363159 10.9853 0.000488281 11.1218 0.000488281C11.2583 0.000488281 11.3924 0.0363159 11.5107 0.104389L20.8536 5.48359H20.8555C20.8866 5.50304 20.9129 5.52734 20.9411 5.54974C20.9664 5.56919 20.9946 5.58669 21.0169 5.60804C21.0441 5.63624 21.0636 5.66834 21.0869 5.69944C21.1034 5.72279 21.1258 5.74319 21.1394 5.76849C21.1618 5.80734 21.1744 5.84819 21.19 5.88904C21.1978 5.91139 21.2114 5.93179 21.2172 5.95514C21.2351 6.02139 21.2442 6.08969 21.2444 6.15834V26.1459L29.0299 21.6631V11.4452C29.0299 11.3771 29.0396 11.3081 29.0571 11.243C29.0639 11.2196 29.0765 11.1992 29.0843 11.1769C29.0999 11.136 29.1135 11.0942 29.1349 11.0563C29.1494 11.031 29.1708 11.0106 29.1874 10.9873C29.2107 10.9562 29.2301 10.9241 29.2574 10.8969C29.2797 10.8745 29.3079 10.858 29.3332 10.8385C29.3623 10.8152 29.3876 10.7899 29.4187 10.7714H29.4197L38.7636 5.39224C38.8819 5.32404 39.016 5.28819 39.1525 5.28819C39.289 5.28819 39.4231 5.32404 39.5414 5.39224L48.8843 10.7714C48.9173 10.7909 48.9426 10.8152 48.9718 10.8376C48.9961 10.857 49.0243 10.8745 49.0466 10.8959C49.0738 10.9241 49.0933 10.9562 49.1166 10.9873C49.1341 11.0106 49.1555 11.031 49.1691 11.0563C49.1915 11.0942 49.2041 11.136 49.2197 11.1769C49.2284 11.1992 49.2411 11.2196 49.2469 11.243ZM47.7166 21.6631V12.7927L44.4471 14.6749L39.9302 17.2755V26.1459L47.7176 21.6631H47.7166ZM38.3737 37.7094V28.8331L33.9308 31.3706L21.2434 38.6116V47.5715L38.3737 37.7094ZM2.5576 7.50484V37.7094L19.686 47.5705V38.6126L10.7378 33.5483L10.7349 33.5464L10.731 33.5444C10.7008 33.5269 10.6756 33.5017 10.6474 33.4803C10.6231 33.4608 10.5949 33.4453 10.5735 33.4239L10.5715 33.421C10.5463 33.3967 10.5288 33.3665 10.5074 33.3393C10.4879 33.3131 10.4646 33.2907 10.449 33.2635L10.4481 33.2606C10.4306 33.2314 10.4199 33.1964 10.4072 33.1633C10.3946 33.1342 10.3781 33.107 10.3703 33.0758V33.0749C10.3606 33.0379 10.3586 32.999 10.3547 32.9611C10.3508 32.932 10.3431 32.9028 10.3431 32.8736V11.9877L5.82715 9.38604L2.5576 7.50579V7.50484ZM11.1228 1.67742L3.33828 6.15834L11.1208 10.6392L18.9043 6.15734L11.1208 1.67742H11.1228ZM15.171 29.642L19.6869 27.0423V7.50484L16.4174 9.38704L11.9005 11.9877V31.5252L15.171 29.642ZM39.1525 6.96524L31.369 11.4462L39.1525 15.9271L46.935 11.4452L39.1525 6.96524ZM38.3737 17.2755L33.8569 14.6749L30.5873 12.7927V21.6631L35.1032 24.2628L38.3737 26.1459V17.2755ZM20.4637 37.2651L31.8804 30.7474L37.5872 27.4905L29.8096 23.0125L20.8546 28.1681L12.6929 32.8668L20.4637 37.2651Z" fill="#FF2D20"/>
</svg>
