<svg width="50" height="50" viewBox="0 0 50 50" fill="none" xmlns="http://www.w3.org/2000/svg">
<g clip-path="url(#clip0_461_2095)">
<path d="M24.8199 0.000488281C12.1268 0.000488281 12.9192 5.50499 12.9192 5.50499L12.9333 11.2078H25.0462V12.9199H8.12235C8.12235 12.9199 0 11.9988 0 24.806C0 37.6137 7.0894 37.1595 7.0894 37.1595H11.3203V31.2162C11.3203 31.2162 11.0922 24.1268 18.2965 24.1268H30.3102C30.3102 24.1268 37.06 24.2359 37.06 17.6035V6.63719C37.06 6.63719 38.0851 0.000488281 24.8199 0.000488281ZM18.1409 3.83552C18.4271 3.83526 18.7106 3.89145 18.975 4.00087C19.2395 4.11029 19.4799 4.27079 19.6822 4.47319C19.8846 4.67558 20.0452 4.91591 20.1546 5.18039C20.264 5.44489 20.3202 5.72839 20.32 6.01459C20.3202 6.30084 20.264 6.58429 20.1546 6.84879C20.0452 7.11329 19.8846 7.35364 19.6822 7.55604C19.4799 7.75844 19.2395 7.91894 18.975 8.02834C18.7106 8.13774 18.4271 8.19394 18.1409 8.19369C17.8546 8.19394 17.5711 8.13774 17.3067 8.02834C17.0422 7.91894 16.8018 7.75844 16.5994 7.55604C16.397 7.35364 16.2365 7.11329 16.1271 6.84879C16.0177 6.58429 15.9615 6.30084 15.9618 6.01459C15.9615 5.72839 16.0177 5.44489 16.1271 5.18039C16.2365 4.91591 16.397 4.67558 16.5994 4.47319C16.8018 4.27079 17.0422 4.11029 17.3067 4.00087C17.5711 3.89145 17.8546 3.83526 18.1409 3.83552Z" fill="url(#paint0_linear_461_2095)"/>
<path d="M25.1804 49.7403C37.8735 49.7403 37.081 44.2358 37.081 44.2358L37.0669 38.5332H24.9538V36.821H41.8777C41.8777 36.821 50 37.7422 50 24.9345C50 12.127 42.9107 12.5812 42.9107 12.5812H38.6797V18.5243C38.6797 18.5243 38.9078 25.6137 31.7035 25.6137H19.6898C19.6898 25.6137 12.9401 25.5046 12.9401 32.1373V43.1038C12.9401 43.1038 11.9153 49.7403 25.1804 49.7403ZM31.8594 45.9056C31.5731 45.9059 31.2897 45.8497 31.0252 45.7403C30.7607 45.6309 30.5204 45.4704 30.318 45.268C30.1156 45.0656 29.9551 44.8253 29.8456 44.5608C29.7362 44.2963 29.68 44.0128 29.6803 43.7266C29.68 43.4403 29.7362 43.1568 29.8456 42.8923C29.955 42.6278 30.1155 42.3874 30.3179 42.185C30.5203 41.9826 30.7606 41.8221 31.0251 41.7126C31.2896 41.6032 31.5731 41.547 31.8594 41.5473C32.1456 41.547 32.4291 41.6032 32.6936 41.7126C32.9581 41.822 33.1984 41.9825 33.4008 42.1849C33.6032 42.3873 33.7637 42.6277 33.8731 42.8922C33.9825 43.1567 34.0387 43.4401 34.0385 43.7264C34.0387 44.0126 33.9825 44.2961 33.8731 44.5606C33.7637 44.8251 33.6032 45.0654 33.4008 45.2678C33.1984 45.4702 32.9581 45.6307 32.6936 45.7401C32.4291 45.8495 32.1456 45.9059 31.8594 45.9056Z" fill="url(#paint1_linear_461_2095)"/>
</g>
<defs>
<linearGradient id="paint0_linear_461_2095" x1="4.80498" y1="4.4743" x2="29.5834" y2="29.0056" gradientUnits="userSpaceOnUse">
<stop stop-color="#387EB8"/>
<stop offset="1" stop-color="#366994"/>
</linearGradient>
<linearGradient id="paint1_linear_461_2095" x1="20.0141" y1="20.2266" x2="46.6233" y2="45.3812" gradientUnits="userSpaceOnUse">
<stop stop-color="#FFE052"/>
<stop offset="1" stop-color="#FFC331"/>
</linearGradient>
<clipPath id="clip0_461_2095">
<rect width="50" height="50" fill="white"/>
</clipPath>
</defs>
</svg>
