<svg width="50" height="50" viewBox="0 0 50 50" fill="none" xmlns="http://www.w3.org/2000/svg">
<g clip-path="url(#clip0_462_3879)">
<path d="M43.0539 28.0558C41.3096 28.065 39.7936 28.4851 38.5241 29.1061C38.0583 28.1837 37.5925 27.3618 37.5103 26.759C37.419 26.0558 37.3094 25.6265 37.419 24.7863C37.5286 23.9461 38.0218 22.7497 38.0126 22.6584C38.0035 22.5671 37.903 22.1379 36.8985 22.1287C35.8939 22.1196 35.0263 22.3205 34.9258 22.5854C34.8254 22.8502 34.6335 23.453 34.5057 24.074C34.3322 24.9872 32.4965 28.2476 31.4463 29.9554C31.1084 29.2887 30.8161 28.7043 30.7521 28.2385C30.6609 27.5353 30.5513 27.106 30.6609 26.2658C30.7705 25.4256 31.2636 24.2292 31.2544 24.1379C31.2453 24.0466 31.1449 23.6173 30.1403 23.6082C29.1357 23.5991 28.2681 23.8 28.1676 24.0648C28.0672 24.3297 27.9576 24.9507 27.7475 25.5535C27.5374 26.1562 25.099 31.5993 24.4597 33.0058C24.1309 33.7272 23.8478 34.3026 23.6469 34.6953C23.6469 34.6953 23.6378 34.7227 23.6104 34.7684C23.4369 35.1063 23.3365 35.2889 23.3365 35.2889C23.3365 35.2889 23.3365 35.2889 23.3365 35.2981C23.1995 35.5446 23.0533 35.773 22.9802 35.773C22.9254 35.773 22.825 35.1154 22.9985 34.2204C23.3639 32.3299 24.2314 29.3892 24.2223 29.2887C24.2223 29.234 24.3867 28.7225 23.656 28.4577C22.9437 28.1928 22.688 28.6312 22.6241 28.6312C22.5602 28.6312 22.5145 28.7865 22.5145 28.7865C22.5145 28.7865 23.309 25.4804 20.9984 25.4804C19.5555 25.4804 17.5646 27.0604 16.5783 28.4851C15.9572 28.823 14.6329 29.5445 13.2174 30.3207C12.6785 30.6221 12.1215 30.9235 11.6009 31.2066C11.5644 31.1701 11.5278 31.1244 11.4913 31.0879C8.6967 28.1015 3.52762 25.9918 3.7468 21.9826C3.82899 20.5214 4.33129 16.6856 13.6741 12.028C21.3638 8.23786 27.4826 9.28811 28.542 11.617C30.0581 14.9413 25.2635 21.115 17.318 22.01C14.286 22.3479 12.6968 21.1789 12.295 20.7405C11.8749 20.2839 11.8109 20.2565 11.6557 20.3478C11.4 20.4848 11.5644 20.8958 11.6557 21.1333C11.8931 21.7543 12.8703 22.8502 14.5234 23.389C15.9846 23.8639 19.5373 24.1288 23.8387 22.4666C28.6516 20.6036 32.4143 15.4253 31.3092 11.0873C30.2042 6.68531 22.8981 5.23321 15.9846 7.68991C11.8749 9.15116 7.41815 11.4526 4.21256 14.4481C0.404233 18.0099 -0.198525 21.1059 0.048058 22.4027C0.93393 27.0056 7.28115 30.0011 9.82005 32.2203C9.6922 32.2934 9.57345 32.3573 9.473 32.4121C8.20355 33.0423 3.36322 35.572 2.15771 38.2479C0.787805 41.28 2.37689 43.4536 3.42716 43.7458C6.68755 44.6499 10.0392 43.0243 11.8384 40.3393C13.6375 37.6543 13.4183 34.1656 12.5872 32.5674C12.5781 32.5491 12.569 32.5309 12.5507 32.5126C12.8795 32.3208 13.2174 32.1199 13.5462 31.9281C14.1946 31.5445 14.8339 31.1883 15.3819 30.8961C15.0714 31.7454 14.843 32.7592 14.7334 34.2204C14.5964 35.9373 15.2997 38.1657 16.222 39.0425C16.633 39.426 17.1171 39.4352 17.4275 39.4352C18.5052 39.4352 18.9892 38.5402 19.5281 37.4808C20.1856 36.1839 20.7792 34.677 20.7792 34.677C20.7792 34.677 20.0395 38.7502 22.0487 38.7502C22.7794 38.7502 23.5191 37.8004 23.8479 37.3164C23.8479 37.3255 23.8479 37.3255 23.8479 37.3255C23.8479 37.3255 23.8661 37.2981 23.9027 37.2342C23.9757 37.1155 24.0214 37.0424 24.0214 37.0424C24.0214 37.0424 24.0214 37.0333 24.0214 37.0241C24.3137 36.5127 24.9712 35.3529 25.9484 33.4259C27.2087 30.9418 28.4233 27.8367 28.4233 27.8367C28.4233 27.8367 28.533 28.5947 28.9074 29.855C29.1266 30.5947 29.5832 31.4075 29.9485 32.1929C29.6562 32.6039 29.4736 32.8322 29.4736 32.8322C29.4736 32.8322 29.4736 32.8322 29.4827 32.8414C29.2453 33.1519 28.9895 33.4898 28.7064 33.8186C27.711 35.0058 26.5238 36.3666 26.3594 36.7593C26.1676 37.2251 26.2133 37.563 26.5786 37.837C26.8434 38.0379 27.3183 38.0653 27.8023 38.0379C28.6973 37.9739 29.3274 37.7548 29.638 37.6178C30.122 37.4442 30.6883 37.1794 31.218 36.7867C32.1952 36.0652 32.7887 35.0332 32.734 33.6724C32.7066 32.9236 32.46 32.1747 32.1586 31.4715C32.25 31.3436 32.3321 31.2157 32.4235 31.0879C33.9669 28.8321 35.1632 26.3572 35.1632 26.3572C35.1632 26.3572 35.2729 27.1152 35.6473 28.3755C35.83 29.0148 36.2044 29.7089 36.5331 30.3847C35.0811 31.5628 34.1861 32.9327 33.8664 33.8277C33.291 35.4898 33.7385 36.2387 34.5879 36.4122C34.9715 36.4944 35.5194 36.3118 35.9213 36.1383C36.4327 35.9739 37.0354 35.6908 37.6108 35.2707C38.588 34.5492 39.5287 33.5446 39.4739 32.1838C39.4465 31.5628 39.2821 30.9509 39.0538 30.3573C40.2867 29.8458 41.8758 29.5627 43.9033 29.8002C48.2504 30.3116 49.1089 33.024 48.9445 34.1656C48.7801 35.3072 47.8668 35.9282 47.5654 36.12C47.2641 36.3118 47.1637 36.3757 47.191 36.5127C47.2276 36.7136 47.3737 36.7045 47.6294 36.668C47.9855 36.604 49.9126 35.7456 49.9948 33.645C50.132 30.96 47.5746 28.0284 43.0539 28.0558ZM9.51865 39.3621C8.0757 40.9329 6.0665 41.5266 5.1989 41.0243C4.26737 40.4854 4.63267 38.1657 6.4044 36.5036C7.48205 35.4898 8.87025 34.5492 9.79265 33.9738C10.0027 33.846 10.3132 33.6633 10.6876 33.435C10.7516 33.3985 10.7881 33.3802 10.7881 33.3802C10.8611 33.3345 10.9343 33.2889 11.0073 33.2432C11.6557 35.6177 11.0347 37.7091 9.51865 39.3621ZM20.0212 32.2203C19.5189 33.4441 18.4687 36.5766 17.8294 36.4031C17.2814 36.257 16.9436 33.8825 17.7198 31.5354C18.1126 30.3573 18.9436 28.9508 19.4277 28.4029C20.2131 27.5261 21.0807 27.2339 21.2907 27.5901C21.5556 28.0558 20.3317 31.4532 20.0212 32.2203ZM28.6882 36.3666C28.4781 36.4762 28.2772 36.5492 28.1859 36.4944C28.122 36.4579 28.2772 36.3118 28.2772 36.3118C28.2772 36.3118 29.364 35.1428 29.7932 34.6131C30.0398 34.3026 30.332 33.9373 30.6426 33.5263C30.6426 33.5628 30.6426 33.6085 30.6426 33.645C30.6426 35.0423 29.291 35.983 28.6882 36.3666ZM35.3733 34.8414C35.218 34.7318 35.2454 34.3665 35.766 33.2249C35.9669 32.7774 36.4418 32.0286 37.2547 31.3071C37.346 31.5993 37.4099 31.8824 37.4008 32.1473C37.3916 33.9099 36.1313 34.5674 35.3733 34.8414Z" fill="#CD6799"/>
</g>
<defs>
<clipPath id="clip0_462_3879">
<rect width="50" height="50" fill="white"/>
</clipPath>
</defs>
</svg>
