<svg width="50" height="50" viewBox="0 0 50 50" fill="none" xmlns="http://www.w3.org/2000/svg">
<g clip-path="url(#clip0_477_140)">
<path d="M25.0002 10.0002C18.3334 10.0002 14.1668 13.3327 12.4999 19.9971C15.0002 16.6646 17.917 15.4154 21.2501 16.2482C23.1521 16.7234 24.5113 18.1032 26.0163 19.6301C28.4672 22.1172 31.3039 24.9958 37.5006 24.9958C44.1668 24.9958 48.334 21.6633 50.0001 14.9983C47.5006 18.3308 44.5838 19.5807 41.2501 18.7479C39.3488 18.2727 37.9895 16.8928 36.4846 15.366C34.0336 12.8788 31.1963 10.0002 25.0002 10.0002ZM12.4999 24.9958C5.83367 24.9958 1.66649 28.3283 0.000244141 34.9933C2.49993 31.6608 5.41667 30.411 8.75042 31.2444C10.6517 31.7202 12.011 33.0995 13.5159 34.6257C15.9669 37.1128 18.8042 39.992 25.0002 39.992C31.6671 39.992 35.8337 36.6595 37.5006 29.9946C35.0002 33.3271 32.0835 34.5769 28.7504 33.7435C26.8484 33.2689 25.4892 31.8884 23.9842 30.3622C21.5333 27.875 18.6966 24.9958 12.4999 24.9958Z" fill="#06B6D4"/>
</g>
<defs>
<clipPath id="clip0_477_140">
<rect width="50" height="50" fill="white"/>
</clipPath>
</defs>
</svg>
