<svg width="50" height="50" viewBox="0 0 50 50" fill="none" xmlns="http://www.w3.org/2000/svg">
<g clip-path="url(#clip0_462_3866)">
<path d="M0 0.000488281H50V50.0002H0V0.000488281Z" fill="#017ACB"/>
<path d="M24.0079 18.5158H26.4063V22.6565H19.9219V41.0783L19.75 41.1252C19.5156 41.1877 16.4297 41.1877 15.7656 41.1174L15.2344 41.0705V22.6565H8.75V18.5158L10.8047 18.4924C11.9297 18.4768 14.8203 18.4768 17.2266 18.4924C19.6329 18.508 22.6797 18.5158 24.0079 18.5158ZM42.3125 39.1252C41.3595 40.133 40.336 40.6955 38.6329 41.1565C37.8907 41.3596 37.7656 41.3674 36.0938 41.3596C34.4219 41.3518 34.2891 41.3518 33.4766 41.1408C31.375 40.6018 29.6797 39.5471 28.5235 38.0549C28.1954 37.633 27.6563 36.758 27.6563 36.6487C27.6563 36.6174 27.7344 36.5471 27.836 36.5002C27.9376 36.4533 28.1485 36.3205 28.3204 36.219C28.4922 36.1174 28.8047 35.9299 29.0156 35.8205C29.2266 35.7112 29.836 35.3518 30.3673 35.0315C30.8985 34.7112 31.3828 34.4533 31.4375 34.4533C31.4923 34.4533 31.5938 34.5627 31.6719 34.6955C32.1406 35.4846 33.2344 36.4924 34.0079 36.8362C34.4844 37.0393 35.5391 37.2658 36.0469 37.2658C36.5157 37.2658 37.375 37.0627 37.836 36.8518C38.3281 36.6252 38.5782 36.3987 38.875 35.9455C39.0782 35.6252 39.1016 35.5393 39.0938 34.9299C39.0938 34.3674 39.0625 34.2112 38.9063 33.9533C38.4688 33.2346 37.875 32.8596 35.4688 31.7971C32.9844 30.6955 31.8673 30.0393 30.961 29.1565C30.2891 28.5002 30.1563 28.3205 29.7344 27.5002C29.1875 26.4455 29.1172 26.1018 29.1094 24.5315C29.1016 23.4299 29.1251 23.0705 29.2422 22.6955C29.4063 22.133 29.9376 21.0471 30.1797 20.7737C30.6797 20.1877 30.8594 20.008 31.211 19.719C32.2735 18.844 33.9298 18.2658 35.5157 18.2112C35.6954 18.2112 36.2891 18.2424 36.8438 18.2815C38.4375 18.4143 39.5235 18.8049 40.5704 19.6408C41.3595 20.2658 42.5547 21.7346 42.4375 21.9299C42.3595 22.0471 39.2423 24.1252 39.0391 24.1877C38.9141 24.2268 38.8282 24.1799 38.6563 23.9768C37.5938 22.7033 37.1641 22.4299 36.1329 22.3674C35.3985 22.3205 35.0079 22.4065 34.5157 22.7346C34.0001 23.0783 33.75 23.6018 33.75 24.3283C33.7578 25.3908 34.1641 25.8908 35.6641 26.633C36.6329 27.1096 37.461 27.5002 37.5235 27.5002C37.6172 27.5002 39.625 28.5002 40.1485 28.8127C42.586 30.2424 43.5782 31.7112 43.836 34.2424C44.0235 36.1487 43.4845 37.8908 42.3125 39.1252Z" fill="white"/>
</g>
<defs>
<clipPath id="clip0_462_3866">
<rect width="50" height="50" fill="white"/>
</clipPath>
</defs>
</svg>
