<svg width="50" height="61" viewBox="0 0 50 61" fill="none" xmlns="http://www.w3.org/2000/svg">
<path d="M50 0.5L45.4449 54.4937L24.9694 60.5L4.5503 54.5022L0 0.5H50Z" fill="#264DE4"/>
<path d="M25 55.9091L41.5452 51.0556L45.4378 4.91553H25V55.9091Z" fill="#2965F1"/>
<path d="M25 24.9441H10.4315L10.9925 31.5672H25V24.9441Z" fill="#EBEBEB"/>
<path d="M25 11.5387H24.9784H9.3042L9.87321 18.1619H25V11.5387Z" fill="#EBEBEB"/>
<path d="M11.2722 34.8789L12.1491 45.2782L24.9712 49.0445L25 49.036V42.1452L24.9726 42.1529L18.0013 40.1612L17.5557 34.8789H14.1682H11.2722Z" fill="#EBEBEB"/>
<path d="M32.6862 31.5672L31.9596 40.1569L24.9784 42.1507V49.0412L37.8106 45.2782L37.9048 44.1592L39.3757 26.7226L39.5284 24.9441L40.6584 11.5387H24.9784V18.1619H33.7986L33.229 24.9441H24.9784V31.5672H32.6862Z" fill="white"/>
</svg>
