<svg width="40" height="61" viewBox="0 0 40 61" fill="none" xmlns="http://www.w3.org/2000/svg">
<path d="M10 60.5C15.52 60.5 20 56.02 20 50.5V40.5H10C4.48 40.5 0 44.98 0 50.5C0 56.02 4.48 60.5 10 60.5Z" fill="#0ACF83"/>
<path d="M0 30.5C0 24.98 4.48 20.5 10 20.5H20V40.5H10C4.48 40.5 0 36.02 0 30.5Z" fill="#A259FF"/>
<path d="M0 10.5C0 4.98 4.48 0.5 10 0.5H20V20.5H10C4.48 20.5 0 16.02 0 10.5Z" fill="#F24E1E"/>
<path d="M20 0.5H30C35.52 0.5 40 4.98 40 10.5C40 16.02 35.52 20.5 30 20.5H20V0.5Z" fill="#FF7262"/>
<path d="M40 30.5C40 36.02 35.52 40.5 30 40.5C24.48 40.5 20 36.02 20 30.5C20 24.98 24.48 20.5 30 20.5C35.52 20.5 40 24.98 40 30.5Z" fill="#1ABCFE"/>
</svg>
