<svg width="50" height="61" viewBox="0 0 50 61" fill="none" xmlns="http://www.w3.org/2000/svg">
<path d="M0.0054358 2.48624L3.71726 52.3045C3.77298 53.0525 4.25565 53.6905 4.93749 53.9173L24.4692 60.4139C24.8146 60.5287 25.1854 60.5287 25.5308 60.4139L45.0625 53.9173C45.7443 53.6905 46.227 53.0525 46.2827 52.3045L49.9945 2.48624C50.0744 1.41517 49.2675 0.5 48.2436 0.5H1.75655C0.732598 0.5 -0.0742622 1.41517 0.0054358 2.48624ZM40.4758 17.9432H16.2852L17.0152 25.006H39.9497L38.4494 45.141L25.0001 49.6145L11.5507 45.141L10.7669 34.6216H17.8262V39.7816L25.1887 41.8546L32.5072 39.7816L33.075 31.5581H10.5386L9.0424 11.4759H40.9576L40.4758 17.9432Z" fill="#FC490B"/>
</svg>
