<svg width="55" height="55" viewBox="0 0 55 55" fill="none" xmlns="http://www.w3.org/2000/svg">
<path d="M0 0H55V55H0V0Z" fill="#F0DB4F"/>
<path d="M50.4988 41.8823C50.0959 39.3732 48.4598 37.2656 43.6133 35.3004C41.9297 34.5267 40.0528 33.9727 39.4935 32.6968C39.2949 31.9543 39.2685 31.5361 39.3942 31.0866C39.7549 29.628 41.496 29.1732 42.876 29.5915C43.7648 29.8894 44.6062 30.5743 45.1137 31.667C47.487 30.1301 47.4822 30.1402 49.1395 29.084C48.5327 28.1434 48.2089 27.7093 47.8117 27.3069C46.3843 25.7125 44.4393 24.8913 41.3286 24.9542L39.7083 25.1637C38.1556 25.5561 36.6759 26.3711 35.8082 27.4637C33.2046 30.4179 33.9471 35.5882 37.1152 37.716C40.2364 40.0586 44.8215 40.5915 45.4072 42.7821C45.977 45.4639 43.4362 46.332 40.9108 46.0236C39.0497 45.6365 38.0146 44.6906 36.8956 42.9706C34.8359 44.1625 34.8359 44.1625 32.7182 45.3804C33.2204 46.4783 33.748 46.9752 34.5898 47.9264C38.5739 51.9676 48.5437 51.769 50.3319 45.6524C50.4044 45.4424 50.8859 44.0417 50.4988 41.8823ZM29.8997 25.278H24.7554L24.7343 38.578C24.7343 41.4065 24.8806 43.9995 24.4206 44.7943C23.668 46.3575 21.7177 46.1638 20.8289 45.8606C19.9242 45.416 19.4642 44.7838 18.9313 43.8901C18.785 43.6336 18.6751 43.435 18.6382 43.4196L14.4556 45.981C15.1511 47.4084 16.1757 48.6474 17.488 49.4523C19.4484 50.6289 22.0832 50.9896 24.8388 50.3569C26.6323 49.8345 28.1797 48.7524 28.9898 47.1053C30.1612 44.9459 29.9098 42.3322 29.8993 39.4413C29.9257 34.7249 29.8997 30.0093 29.8997 25.278Z" fill="#323330"/>
</svg>
