<svg width="60" height="55" viewBox="0 0 60 55" fill="none" xmlns="http://www.w3.org/2000/svg">
<path d="M30 32.9636C32.9587 32.9636 35.3571 30.4928 35.3571 27.4449C35.3571 24.397 32.9587 21.9261 30 21.9261C27.0413 21.9261 24.6429 24.397 24.6429 27.4449C24.6429 30.4928 27.0413 32.9636 30 32.9636Z" fill="#00D8FF"/>
<path d="M30 40.0979C23.561 40.2584 17.1381 39.3643 10.9714 37.449C8.12276 36.5187 5.46586 35.0532 3.135 33.1267C2.24556 32.4685 1.50487 31.62 0.963733 30.6392C0.422598 29.6584 0.0938349 28.5686 0 27.4446C0 23.7956 3.89143 20.2195 10.41 17.8796C16.7416 15.8062 23.357 14.8013 30 14.9039C36.5544 14.8095 43.0812 15.7962 49.3329 17.8266C52.0763 18.7276 54.6431 20.1222 56.9143 21.9457C57.7885 22.5732 58.5181 23.391 59.0514 24.3413C59.5846 25.2916 59.9085 26.351 60 27.4446C60 31.2371 55.65 35.0803 48.6429 37.4688C42.5956 39.3217 36.3082 40.2084 30 40.0979ZM30 17.544C23.6445 17.4565 17.3161 18.4118 11.2521 20.374C5.25214 22.5307 2.56286 25.4799 2.56286 27.438C2.56286 29.4865 5.45357 32.7073 11.8007 34.9435C17.7002 36.7665 23.8427 37.6151 30 37.4578C36.0352 37.569 42.0513 36.7277 47.8393 34.9633C54.4286 32.7139 57.4286 29.4887 57.4286 27.4446C57.3205 26.7431 57.0723 26.0724 56.6998 25.4747C56.3273 24.877 55.8385 24.3654 55.2643 23.9722C53.2323 22.3545 50.9394 21.1185 48.4907 20.321C42.5101 18.3867 36.2678 17.4492 30 17.544Z" fill="#00D8FF"/>
<path d="M17.8286 54.9698C16.829 54.9934 15.8411 54.7435 14.9658 54.2457C11.8972 52.4223 10.8343 47.1641 12.1222 40.1774C13.5421 33.4911 16.0025 27.0854 19.4079 21.2084C22.6023 15.3124 26.6919 9.98091 31.5215 5.41601C33.6497 3.41758 36.1048 1.82341 38.7729 0.707433C39.7379 0.241518 40.7907 0 41.8565 0C42.9222 0 43.975 0.241518 44.94 0.707433C48.1307 2.60146 49.1872 8.40274 47.6979 15.8486C46.2341 22.1721 43.8377 28.227 40.5922 33.8021C37.5102 39.6285 33.5494 44.9136 28.8579 49.4599C26.6524 51.5366 24.0929 53.1749 21.3086 54.292C20.1939 54.7182 19.0174 54.9474 17.8286 54.9698ZM21.6279 22.5196C18.3795 28.1473 16.0215 34.2717 14.6422 40.663C13.4572 47.0978 14.595 50.9676 16.2493 51.9521C17.9636 52.9742 22.125 52.0051 27.1779 47.4577C31.6565 43.1022 35.437 38.0432 38.3786 32.4688C41.4878 27.1389 43.7865 21.35 45.195 15.3034C46.5965 8.29458 45.3857 4.00322 43.6672 2.98336C43.0231 2.72911 42.3347 2.6153 41.6457 2.64912C40.9567 2.68293 40.2821 2.86364 39.6643 3.17982C37.2894 4.18941 35.1059 5.6227 33.2143 7.41379C28.6 11.7864 24.6937 16.8904 21.6429 22.5329L21.6279 22.5196Z" fill="#00D8FF"/>
<path d="M42.165 54.9985C39.2614 54.9985 35.5736 53.1883 31.7336 49.7866C26.8194 45.1802 22.6607 39.7853 19.4186 33.811C16.0559 28.0149 13.615 21.7019 12.1886 15.1113C11.5699 12.2118 11.4553 9.22217 11.85 6.28137C11.9412 5.19044 12.2637 4.13342 12.7946 3.18484C13.3256 2.23626 14.0521 1.41922 14.9229 0.791339C18.1093 -1.10931 23.5157 0.844318 29.0336 5.89064C33.6206 10.3546 37.5158 15.5169 40.5836 21.1974C43.9442 26.8581 46.4107 33.0329 47.8907 39.4908C48.536 42.4968 48.6355 45.5998 48.1843 48.6431C48.0769 49.7654 47.7352 50.8505 47.1827 51.8241C46.6301 52.7976 45.8797 53.6365 44.9829 54.2832C44.1218 54.7749 43.1492 55.0217 42.165 54.9985ZM21.6364 32.4821C24.7466 38.1916 28.7192 43.3548 33.405 47.7778C38.2243 52.0493 42.0471 52.9676 43.6907 51.972C45.405 50.9455 46.6693 46.7557 45.3664 39.9765C43.939 33.8108 41.5733 27.9168 38.3571 22.513C35.4296 17.0763 31.7116 12.1331 27.3321 7.85531C22.1379 3.10479 17.925 2.04299 16.2086 3.06726C15.6736 3.51512 15.2346 4.07238 14.9192 4.70387C14.6039 5.33535 14.4191 6.02733 14.3764 6.73611C14.0357 9.3588 14.1467 12.0228 14.7043 14.6058C16.0764 20.9085 18.4173 26.9448 21.6386 32.4865L21.6364 32.4821Z" fill="#00D8FF"/>
</svg>
