<svg width="55" height="55" viewBox="0 0 55 55" fill="none" xmlns="http://www.w3.org/2000/svg">
<path d="M0.523279 19.1793C0.523279 19.1793 -0.816316 18.2033 0.791198 16.8999L4.53648 13.5147C4.53648 13.5147 5.60816 12.3751 6.74123 13.3681L41.3028 39.8178V52.501C41.3028 52.501 41.286 54.4926 38.7576 54.2726L0.523279 19.1793Z" fill="#2489CA"/>
<path d="M9.43159 27.3546L0.52328 35.5412C0.52328 35.5412 -0.39211 36.2295 0.52328 37.4594L4.65928 41.2621C4.65928 41.2621 5.64165 42.3285 7.09288 41.1155L16.537 33.8768L9.43159 27.3546Z" fill="#1070B3"/>
<path d="M25.0714 27.4223L41.4088 14.8124L41.3028 2.19689C41.3028 2.19689 40.6051 -0.556404 38.2775 0.876664L16.537 20.8776L25.0714 27.4223Z" fill="#0877B9"/>
<path d="M38.7576 54.2895C39.7064 55.2712 40.8563 54.9496 40.8563 54.9496L53.588 48.608C55.2178 47.4852 54.989 46.0917 54.989 46.0917V8.22256C54.989 6.55817 53.3033 5.98269 53.3033 5.98269L42.2684 0.605862C39.8571 -0.900553 38.2775 0.876678 38.2775 0.876678C38.2775 0.876678 40.3093 -0.601526 41.3028 2.19691V52.2697C41.3028 52.6138 41.2302 52.9523 41.0851 53.257C40.7949 53.8494 40.1641 54.4023 38.6515 54.171L38.7576 54.2895Z" fill="#3C99D4"/>
</svg>
